<svg xmlns="http://www.w3.org/2000/svg" width="575.887" height="512" viewBox="0 0 575.887 512">
  <path id="hand" d="M568.2,336.3a39.9,39.9,0,0,0-55.93-8.469L392.57,416H271.97c-8.748,0-15.1-7.25-15.1-15.99s7.25-16,15.1-16h78.25c15.1,0,30.75-10.88,33.37-26.62a32.06,32.06,0,0,0-31.62-37.38H191.1a119.575,119.575,0,0,0-74.12,26.25L70.48,384l-55.38-.9C7.251,383.1,0,391.3,0,400v95.98C0,504.8,7.251,512,15.1,512H361.2a104.791,104.791,0,0,0,61.7-20.27L558,392.21C577.5,379.1,581.3,354.1,568.2,336.3ZM160,176h64v64a16.047,16.047,0,0,0,16,16h64a16.047,16.047,0,0,0,16-16V176h64a16,16,0,0,0,16-16V96a16,16,0,0,0-16-16H320V16A16.023,16.023,0,0,0,304,0H240a16.023,16.023,0,0,0-16,16V80H160a16.021,16.021,0,0,0-16,16v64A16.047,16.047,0,0,0,160,176Z" fill="#f90"/>
</svg>
