<svg xmlns="http://www.w3.org/2000/svg" width="37.322" height="37.322" viewBox="0 0 37.322 37.322">
  <g id="logo-instagram" transform="translate(-32 -32)">
    <path id="Trazado_10" data-name="Trazado 10" d="M58.436,35.11a7.8,7.8,0,0,1,7.776,7.776v15.55a7.8,7.8,0,0,1-7.776,7.776H42.886a7.8,7.8,0,0,1-7.776-7.776V42.886a7.8,7.8,0,0,1,7.776-7.776h15.55m0-3.11H42.886A10.918,10.918,0,0,0,32,42.886v15.55A10.918,10.918,0,0,0,42.886,69.322h15.55A10.918,10.918,0,0,0,69.322,58.436V42.886A10.918,10.918,0,0,0,58.436,32Z" fill="#e4405f"/>
    <path id="Trazado_11" data-name="Trazado 11" d="M163.438,111.335a2.328,2.328,0,1,1,1.651-.682,2.328,2.328,0,0,1-1.651.682ZM153.33,112.89a6.221,6.221,0,1,1-6.221,6.221,6.221,6.221,0,0,1,6.221-6.221m0-3.11a9.33,9.33,0,1,0,9.33,9.33,9.33,9.33,0,0,0-9.33-9.33Z" transform="translate(-102.67 -68.449)" fill="#e4405f"/>
  </g>
</svg>
