<svg xmlns="http://www.w3.org/2000/svg" width="46.652" height="37.323" viewBox="0 0 46.652 37.323">
  <path id="logo-twitter" d="M62.652,68.422a19.613,19.613,0,0,1-5.5,1.487,9.477,9.477,0,0,0,4.211-5.21,19.219,19.219,0,0,1-6.08,2.284A9.636,9.636,0,0,0,48.3,64a9.493,9.493,0,0,0-9.57,9.418,9.059,9.059,0,0,0,.247,2.148,27.282,27.282,0,0,1-19.73-9.846,9.3,9.3,0,0,0-1.3,4.733A9.394,9.394,0,0,0,22.22,78.3a9.476,9.476,0,0,1-4.352-1.176v.117a9.463,9.463,0,0,0,7.678,9.233,9.793,9.793,0,0,1-2.521.33,9.173,9.173,0,0,1-1.8-.175,9.567,9.567,0,0,0,8.947,6.541A19.4,19.4,0,0,1,18.284,97.2,19.73,19.73,0,0,1,16,97.065a27.086,27.086,0,0,0,14.651,4.257c17.627,0,27.257-14.355,27.257-26.806,0-.408-.011-.816-.03-1.215a19.291,19.291,0,0,0,4.774-4.879Z" transform="translate(-16 -64)" fill="#1da1f2"/>
</svg>
