<svg xmlns="http://www.w3.org/2000/svg" width="448" height="448" viewBox="0 0 448 448">
  <path id="phone" d="M384,32H64A64,64,0,0,0,0,96V416a64,64,0,0,0,64,64H384a64,64,0,0,0,64-64V96A64.027,64.027,0,0,0,384,32ZM351.6,321.5l-11.62,50.39A15.547,15.547,0,0,1,324.74,384c-126.1,0-228.7-102.6-228.7-228.8a15.532,15.532,0,0,1,12.11-15.22l50.38-11.63a15.735,15.735,0,0,1,17.93,9.062l23.27,54.28a15.642,15.642,0,0,1-4.492,18.22L168.3,232a174.825,174.825,0,0,0,79.77,79.75l22.02-26.91a15.561,15.561,0,0,1,18.24-4.484l54.24,23.25A15.693,15.693,0,0,1,351.6,321.5Z" transform="translate(0 -32)"/>
</svg>
